<svg xmlns="http://www.w3.org/2000/svg" xmlns:xlink="http://www.w3.org/1999/xlink" width="80" height="80" viewBox="0 0 80 80">
  <defs>
    <linearGradient id="linear-gradient" x1="0.5" y1="0.436" x2="0.5" y2="0.987" gradientUnits="objectBoundingBox">
      <stop offset="0" stop-color="#fff"/>
      <stop offset="1" stop-color="#ffd56d"/>
    </linearGradient>
    <linearGradient id="linear-gradient-2" x1="-0.096" y1="-2.179" x2="0.446" y2="0.182" gradientUnits="objectBoundingBox">
      <stop offset="0" stop-color="#fff"/>
      <stop offset="1" stop-color="#fbbc68"/>
    </linearGradient>
    <linearGradient id="linear-gradient-3" x1="0.133" y1="-1.08" x2="0.52" y2="0.443" xlink:href="#linear-gradient-2"/>
    <linearGradient id="linear-gradient-4" x1="0.261" y1="-0.582" x2="0.54" y2="0.558" xlink:href="#linear-gradient-2"/>
    <linearGradient id="linear-gradient-5" x1="0.289" y1="-0.498" x2="1.449" y2="4.793" xlink:href="#linear-gradient-2"/>
    <linearGradient id="linear-gradient-6" x1="0.343" y1="-0.193" x2="0.889" y2="2.117" xlink:href="#linear-gradient-2"/>
    <linearGradient id="linear-gradient-7" x1="0.197" y1="-0.05" x2="1.007" y2="1.421" xlink:href="#linear-gradient-2"/>
    <linearGradient id="linear-gradient-8" x1="0.32" y1="-0.234" x2="2.156" y2="7.26" xlink:href="#linear-gradient-2"/>
    <linearGradient id="linear-gradient-9" x1="0.212" y1="-0.072" x2="1.358" y2="2.203" xlink:href="#linear-gradient-2"/>
    <linearGradient id="linear-gradient-10" x1="0.358" y1="-0.084" x2="0.65" y2="1.119" xlink:href="#linear-gradient-2"/>
    <linearGradient id="linear-gradient-11" x1="0.355" y1="-0.078" x2="0.609" y2="0.933" xlink:href="#linear-gradient-2"/>
    <linearGradient id="linear-gradient-12" x1="0.195" y1="-0.113" x2="0.57" y2="0.64" xlink:href="#linear-gradient-2"/>
    <linearGradient id="linear-gradient-13" x1="-0.286" y1="-4.834" x2="2.343" y2="13.689" xlink:href="#linear-gradient-2"/>
    <linearGradient id="linear-gradient-14" x1="0.271" y1="-0.684" x2="0.812" y2="2.286" xlink:href="#linear-gradient-2"/>
    <linearGradient id="linear-gradient-15" x1="0.287" y1="-0.425" x2="0.678" y2="1.574" xlink:href="#linear-gradient-2"/>
    <linearGradient id="linear-gradient-16" x1="0.237" y1="-0.473" x2="0.502" y2="0.508" xlink:href="#linear-gradient-2"/>
    <linearGradient id="linear-gradient-17" x1="0.158" y1="-0.775" x2="0.473" y2="0.401" xlink:href="#linear-gradient-2"/>
    <linearGradient id="linear-gradient-18" x1="-0.795" y1="-4.107" x2="0.17" y2="-0.668" xlink:href="#linear-gradient-2"/>
    <linearGradient id="linear-gradient-19" x1="0.074" y1="-1.304" x2="0.434" y2="0.219" xlink:href="#linear-gradient-2"/>
    <linearGradient id="linear-gradient-20" x1="-0.483" y1="-1.653" x2="0.304" y2="0.071" xlink:href="#linear-gradient-2"/>
    <linearGradient id="linear-gradient-21" x1="-2.664" y1="-10.871" x2="-0.526" y2="-3.186" xlink:href="#linear-gradient-2"/>
    <linearGradient id="linear-gradient-22" x1="-0.019" y1="-2.074" x2="2.34" y2="9.622" xlink:href="#linear-gradient-2"/>
    <linearGradient id="linear-gradient-23" x1="0.347" y1="-0.397" x2="0.78" y2="2.105" xlink:href="#linear-gradient-2"/>
    <linearGradient id="linear-gradient-24" x1="-0.898" y1="-5.954" x2="0.263" y2="-0.703" xlink:href="#linear-gradient-2"/>
    <linearGradient id="linear-gradient-25" x1="-4.743" y1="-19.772" x2="-0.592" y2="-3.875" xlink:href="#linear-gradient-2"/>
  </defs>
  <g id="Group_1753" data-name="Group 1753" transform="translate(0 0)">
    <g id="Group_1752" data-name="Group 1752">
      <g id="Group_1750" data-name="Group 1750">
        <g id="Group_1746" data-name="Group 1746">
          <path id="Path_28834" data-name="Path 28834" d="M106.818,83.547a2.744,2.744,0,0,1-2.538,2.716H30.156a2.8,2.8,0,0,1-2.6-2.716V9.322a2.413,2.413,0,0,1,2.6-2.261H104.28a2.355,2.355,0,0,1,2.538,2.261Z" transform="translate(-26.818 -6.326)" fill="#e4995b"/>
          <path id="Path_28835" data-name="Path 28835" d="M107.1,83.652a2.9,2.9,0,0,1-2.9,2.9H30a2.9,2.9,0,0,1-2.9-2.9V9.506A2.9,2.9,0,0,1,30,6.61h74.205a2.9,2.9,0,0,1,2.9,2.9Zm0-73.914a2.22,2.22,0,0,0-1.948-2.415H30.478a2.22,2.22,0,0,0-1.947,2.415V83.42a2.22,2.22,0,0,0,1.947,2.415h74.675A2.22,2.22,0,0,0,107.1,83.42Z" transform="translate(-27.102 -6.61)" fill="#cc7249"/>
        </g>
        <g id="Group_1749" data-name="Group 1749" transform="translate(2.207 1.472)">
          <path id="Path_28836" data-name="Path 28836" d="M104.778,81.415a2.265,2.265,0,0,1-2.159,2.356h-72a2.265,2.265,0,0,1-2.159-2.356V9.869a2.265,2.265,0,0,1,2.159-2.356h72a2.265,2.265,0,0,1,2.159,2.356Z" transform="translate(-28.456 -7.513)" fill="#e5aa75"/>
          <g id="Group_1747" data-name="Group 1747">
            <path id="Path_28837" data-name="Path 28837" d="M32.876,9.016,53.8,7.513H31.149a2.89,2.89,0,0,0-2.693,2.763v21.53L30.269,11.6A2.649,2.649,0,0,1,32.876,9.016Z" transform="translate(-28.456 -7.513)" fill="#e5aa75"/>
          </g>
          <g id="Group_1748" data-name="Group 1748" transform="translate(52.591 51.478)">
            <path id="Path_28838" data-name="Path 28838" d="M84.694,61.523,85.917,40.6V63.251a1.957,1.957,0,0,1-2.2,2.128H62.186l20.066-1.531A2.293,2.293,0,0,0,84.694,61.523Z" transform="translate(-62.186 -40.598)" fill="#e5aa75"/>
          </g>
          <path id="Path_28839" data-name="Path 28839" d="M104.778,81.415a2.265,2.265,0,0,1-2.159,2.356h-72a2.265,2.265,0,0,1-2.159-2.356V9.869a2.265,2.265,0,0,1,2.159-2.356h72a2.265,2.265,0,0,1,2.159,2.356Z" transform="translate(-28.456 -7.513)" opacity="0.2" fill="url(#linear-gradient)"/>
        </g>
      </g>
      <g id="Group_1751" data-name="Group 1751" transform="translate(0.828 0.903)" opacity="0.2">
        <path id="Path_28840" data-name="Path 28840" d="M39.813,49.908a2.288,2.288,0,0,1,1.73,2.134c.349,2.817-.887,5.851-1.912,8.419-.919,2.309-1.937,4.56-3.011,6.784H40.2c1.037-2.033,2.061-4.074,3.047-6.133,1-2.092,1.927-4.219,2.92-6.314.673-1.422,1.342-2.85,1.9-4.322a17.319,17.319,0,0,0,1.3-5.212c.055-1.237-.1-2.856-1.221-3.634-1.306-.908-3.1-.039-4.3.649A33.179,33.179,0,0,0,37.8,47.04c-2.2,2.072-4.286,4.268-6.317,6.507-1.309,1.444-2.592,2.912-3.869,4.386v2.131c.509-.7,1.009-1.415,1.529-2.1a31.505,31.505,0,0,1,3.4-3.675,28.2,28.2,0,0,1,3.7-3.135C37.216,50.495,38.567,49.642,39.813,49.908Z" transform="translate(-27.61 11.852)" fill="url(#linear-gradient-2)"/>
        <path id="Path_28841" data-name="Path 28841" d="M52.386,53.041C50.923,57.029,49.254,60.9,47.571,64.8a77.393,77.393,0,0,0-3.034,7.979h2.4c.538-2.3,1.065-4.609,1.725-6.882,1.048-3.614,2.388-7.147,3.73-10.662s2.7-7,3.82-10.581A35.462,35.462,0,0,0,58,36.876c.09-1.167.2-2.825-.66-3.766-1.138-1.25-3.182-.44-4.426.2-4.281,2.2-7.808,5.584-11.1,9.042-3.1,3.261-6.226,6.51-9.055,10.012a63.475,63.475,0,0,1-5.152,5.9v1c1.317-1.684,2.8-3.259,4.232-4.844,2.458-2.732,5.083-5.3,7.6-7.969a53.689,53.689,0,0,1,6.052-5.74c1.691-1.312,3.921-2.957,6.2-2.682,2.659.32,3.243,3.453,3.1,5.633A34.3,34.3,0,0,1,52.386,53.041Z" transform="translate(-27.61 6.316)" fill="url(#linear-gradient-3)"/>
        <path id="Path_28842" data-name="Path 28842" d="M55.18,67.909c-1.063,3.324-1.852,6.723-2.728,10.1h5.036c.789-4.244,1.86-8.435,3.062-12.581,2.392-8.258,5.3-16.363,7.614-24.644A38.021,38.021,0,0,0,69.8,31.9c.082-2.447-.207-5.625-2.594-6.978-4.073-2.307-8.685,1.146-11.782,3.593-4.046,3.2-7.447,7.168-10.842,11.023Q38.99,45.889,33.572,52.4c-1.6,1.909-3.153,3.851-4.746,5.763-.391.468-.8.934-1.216,1.383v1.325c.205-.261.408-.525.6-.784,1.078-1.422,2.178-2.8,3.327-4.162,3.585-4.244,7.185-8.461,10.962-12.535A90.036,90.036,0,0,1,53.248,33.128a14.723,14.723,0,0,1,5.846-3.041,5.182,5.182,0,0,1,3.316.22c1.885.946,2.26,3.277,2.243,5.186C64.6,41.138,62.28,46.738,60.51,52.012,58.734,57.311,56.885,62.586,55.18,67.909Z" transform="translate(-27.61 1.09)" fill="url(#linear-gradient-4)"/>
        <path id="Path_28843" data-name="Path 28843" d="M47.48,8.286c-.991,1.728-2.175,4-3.927,5.083a1.4,1.4,0,0,1-1.627.112c-.589-.45-.487-1.523-.416-2.155a23.545,23.545,0,0,1,.964-4.162H41.221c-.031.155-.064.31-.09.468-.233,1.384-.349,2.781-.505,4.175a13.537,13.537,0,0,1-.435,2.736c-.254.763-1.528,3.854-.258,4.193.732.2,1.528-.483,2.026-.929a19.633,19.633,0,0,0,2.47-2.77,71.113,71.113,0,0,0,4.827-7.38c.095-.165.192-.328.289-.492H48.118C47.906,7.542,47.692,7.919,47.48,8.286Z" transform="translate(-20.837 -7.164)" fill="url(#linear-gradient-5)"/>
        <path id="Path_28844" data-name="Path 28844" d="M54.468,7.627a50.207,50.207,0,0,1-3.693,6.6,61.272,61.272,0,0,1-4.886,5.978c-1.224,1.4-2.384,2.848-3.613,4.239a8.93,8.93,0,0,1-2.785,2.489,1.019,1.019,0,0,1-1.536-.892c-.3-2.02.463-4.13,1.187-5.982a38.2,38.2,0,0,0,2.38-6.973c.357-1.966.514-3.965.887-5.925H40.538a71.86,71.86,0,0,1-3.251,14.629c-.763,2.512-1.743,4.972-2.312,7.54a8.071,8.071,0,0,0-.282,3.429c.269,1.169,1.27,1.141,2.217.7,3.585-1.663,5.791-5.717,7.868-8.88,2.379-3.618,5.254-6.86,7.6-10.5a51.317,51.317,0,0,0,3.825-6.916H54.681C54.61,7.317,54.539,7.474,54.468,7.627Z" transform="translate(-23.207 -7.164)" fill="url(#linear-gradient-6)"/>
        <path id="Path_28845" data-name="Path 28845" d="M40.52,7.164c-.184.8-.37,1.606-.584,2.4A38,38,0,0,1,37.6,15.782a40.22,40.22,0,0,0-2.75,6.665c-.587,2.214-.981,4.478-1.642,6.673a39.688,39.688,0,0,1-2.643,6.353,46.982,46.982,0,0,1-2.951,5.274v8.173c2.855-4.826,5.558-9.728,7.1-15.147.678-2.39,1.021-4.85,1.652-7.252.652-2.476,1.457-4.907,2.289-7.328A89.377,89.377,0,0,0,42.188,7.164Z" transform="translate(-27.61 -7.164)" fill="url(#linear-gradient-7)"/>
        <path id="Path_28846" data-name="Path 28846" d="M31.275,8.617a17.017,17.017,0,0,1-2.361,3.306c-.417.434-.858.858-1.3,1.281v2.154c1.131-1.471,2.414-2.845,3.582-4.247a33.365,33.365,0,0,0,2.843-3.947H32.124C31.826,7.651,31.55,8.147,31.275,8.617Z" transform="translate(-27.61 -7.164)" fill="url(#linear-gradient-8)"/>
        <path id="Path_28847" data-name="Path 28847" d="M31.091,20.433a40.862,40.862,0,0,0-3.481,4.655v9.074c.222-.921.434-1.846.665-2.76A40.457,40.457,0,0,1,31.568,22.5c2.55-4.865,5.649-9.783,6.332-15.331h-.523C36.109,11.967,34.371,16.582,31.091,20.433Z" transform="translate(-27.61 -7.164)" fill="url(#linear-gradient-9)"/>
        <path id="Path_28848" data-name="Path 28848" d="M63.542,7.164c-.535,1.074-1.123,2.124-1.74,3.151-2.69,4.493-5.416,8.98-8.492,13.22-3.122,4.3-6.161,8.725-9.567,12.8-5.409,6.48-11.6,12.276-16.134,19.378v2.506c1.787-2.015,3.681-3.944,5.6-5.843a138.14,138.14,0,0,0,9.666-10.238c3.461-4.214,6.513-8.734,9.568-13.246,3.122-4.611,6.428-9.069,9.774-13.52,1.686-2.242,3.252-4.575,4.832-6.89.3-.443.611-.88.918-1.321Z" transform="translate(-27.61 -7.164)" fill="url(#linear-gradient-10)"/>
        <path id="Path_28849" data-name="Path 28849" d="M68.115,11.995c-2.633,3.733-5.135,7.547-7.662,11.35-3.107,4.679-6.285,9.311-9.63,13.823A155.7,155.7,0,0,1,41.1,49.5c-4.333,4.757-9.2,9.05-13.488,13.845v4.565c3.443-4.549,6.886-9.1,10.68-13.362,3.575-4.02,7.289-7.9,10.644-12.12,3.481-4.374,6.569-9.04,9.7-13.665,3.031-4.47,6.213-8.8,9.485-13.1,2.115-2.773,4.2-5.577,6.094-8.5H71.568C70.366,8.734,69.25,10.382,68.115,11.995Z" transform="translate(-27.61 -7.164)" fill="url(#linear-gradient-11)"/>
        <path id="Path_28850" data-name="Path 28850" d="M52.885,77.424a112.911,112.911,0,0,0,4.162-11.278,106.161,106.161,0,0,0,2.582-11.993c.458-2.735.978-5.49,1.28-8.246.277-2.55.443-5.109.686-7.66.434-4.577,1.048-9.365,3.148-13.545,3.486-6.94,9.783-11.922,15.084-17.538H78.28a44.7,44.7,0,0,1-3.507,3.561A67.352,67.352,0,0,0,69,16.682c-1.872,2.237-3.813,4.481-5.553,6.816a17.735,17.735,0,0,0-3.067,6.217,35.865,35.865,0,0,0-.787,6.9c-.147,2.674-.4,5.343-.724,8A127.377,127.377,0,0,1,56.4,59.908c-1.221,4.914-2.918,9.692-4.54,14.489-.809,2.391-1.6,4.791-2.294,7.216-.426,1.5-.926,3.067-1.263,4.647h1.413A84.848,84.848,0,0,1,52.885,77.424Z" transform="translate(-16.183 -7.164)" fill="url(#linear-gradient-12)"/>
        <path id="Path_28851" data-name="Path 28851" d="M76.261,7.164a8.856,8.856,0,0,0-1.57,3.3c1.581.139,3.187-.949,4.487-1.914a2.637,2.637,0,0,0-2.323-1.389Z" transform="translate(-0.333 -7.164)" fill="url(#linear-gradient-13)"/>
        <path id="Path_28852" data-name="Path 28852" d="M82.347,13.613c-1.138.761-2.255,1.567-3.412,2.3a9.533,9.533,0,0,1-3.221,1.524,1.075,1.075,0,0,1-1.4-.858,4.939,4.939,0,0,1,1.575-3.694c.61-.706,1.27-1.365,1.89-2.061a17.969,17.969,0,0,0,1.8-2.586q.33-.536.66-1.074H78.6c-1.06,1.544-2.1,3.1-3.212,4.606A53.039,53.039,0,0,1,70.409,17.5a30.189,30.189,0,0,0-4.981,6.026c-.272.484-2.033,4.064-.664,4.3.9.158,2.009-.739,2.683-1.221,1.089-.779,2.113-1.647,3.119-2.53a29.21,29.21,0,0,1,5.954-4.123c2.939-1.518,6.57-2.987,9.554-5.057v-4.02C84.874,11.851,83.622,12.761,82.347,13.613Z" transform="translate(-6.915 -7.164)" fill="url(#linear-gradient-14)"/>
        <path id="Path_28853" data-name="Path 28853" d="M82.951,23.687c-2.669,1.663-5.432,3.156-8.134,4.764a68.337,68.337,0,0,1-9.025,4.862c-.828.336-2.421,1.022-3.225.23a2.482,2.482,0,0,1-.274-2.379A28.656,28.656,0,0,1,66.6,22.74a87.245,87.245,0,0,1,8.228-10.569c1.265-1.368,2.551-2.728,3.7-4.193.2-.256.419-.528.636-.814H77.576c-6.016,8.16-14.733,14.547-17.743,24.561a10.415,10.415,0,0,0-.664,4.562c.272,1.55,1.519,1.849,2.908,1.427A20.6,20.6,0,0,0,65.52,36.1c1.166-.6,2.351-1.162,3.554-1.692,2.519-1.112,5.09-2.124,7.547-3.376,4.244-2.159,7.788-5.486,11.769-8.072.3-.2.613-.395.931-.6V19.276A67.939,67.939,0,0,1,82.951,23.687Z" transform="translate(-10.162 -7.164)" fill="url(#linear-gradient-15)"/>
        <path id="Path_28854" data-name="Path 28854" d="M63.511,56.473c1.063-4.346,1.563-8.841,3.345-12.985a16.929,16.929,0,0,1,3.508-5.478,24.734,24.734,0,0,1,5.383-3.87c2.062-1.14,4.2-2.121,6.316-3.158a34.205,34.205,0,0,0,6.115-3.813c2.286-1.8,4.425-3.773,6.635-5.66V18.792a54.89,54.89,0,0,1-7.755,5.717,68.257,68.257,0,0,1-7.252,4.172c-2.7,1.265-5.523,2.248-8.22,3.521a16.8,16.8,0,0,0-5.936,3.988A12.674,12.674,0,0,0,63.2,41.576c-1.066,4.624-1.966,9.286-3.049,13.908a78.905,78.905,0,0,1-5.018,14.89c-1.136,2.494-2.33,4.966-3.371,7.5-.466,1.13-.968,2.31-1.378,3.517H53.41C56.387,72.933,61.373,65.235,63.511,56.473Z" transform="translate(-15.656 -2.296)" fill="url(#linear-gradient-16)"/>
        <path id="Path_28855" data-name="Path 28855" d="M57.37,75.643a96.23,96.23,0,0,1,15.08-25.1C75.8,46.65,80.132,43.9,84.11,40.722a100.724,100.724,0,0,0,8-7.3V25.164a29.675,29.675,0,0,1-2.271,2.19c-2.176,1.911-4.5,3.654-6.784,5.435-3.918,3.054-8.155,5.82-11.5,9.531a47.3,47.3,0,0,0-7.508,11.626c-3.595,7.618-5.9,15.77-9.384,23.431h1.991C56.89,76.8,57.127,76.217,57.37,75.643Z" transform="translate(-12.956 1.721)" fill="url(#linear-gradient-17)"/>
        <path id="Path_28856" data-name="Path 28856" d="M71.663,46.236c-3.2,1.989-5.059,5.819-6.935,8.941-1.771,2.949-3.667,5.848-5.227,8.918h.631a22.6,22.6,0,0,1,3.758-5.134.174.174,0,0,1,.289.17,24.123,24.123,0,0,1-1.71,4.964h1.378c1.428-2.325,2.278-5.043,3.53-7.467.858-1.658,1.886-3.208,2.783-4.842C71.081,50.108,72,48.194,71.663,46.236Z" transform="translate(-9.308 15.002)" fill="url(#linear-gradient-18)"/>
        <path id="Path_28857" data-name="Path 28857" d="M88.439,34.2c-3.776,3.6-7.459,7.27-11.349,10.749-3.807,3.4-8.024,6.761-10.874,11.045a91.875,91.875,0,0,0-5.973,11.539c-.846,1.772-1.726,3.554-2.747,5.246h1.7A119.519,119.519,0,0,1,65.76,59.543a50.5,50.5,0,0,1,4.562-6.115,30.611,30.611,0,0,1,3.217-3.35,6.9,6.9,0,0,1,2.568-1.629c1.34-.349,1.456.556,1.294,1.634a34.732,34.732,0,0,1-1.718,6.047c-.955,2.758-2,5.486-3.067,8.2-1.113,2.827-2.341,5.623-3.476,8.448h2.406a38.576,38.576,0,0,0,2.419-6.449c1.472-4.6,3.51-9.03,5.315-13.505.9-2.24,1.7-4.544,2.69-6.743a33.87,33.87,0,0,1,3.07-5.338,43.893,43.893,0,0,1,5.29-6.374V32.454C89.693,33.029,89.06,33.61,88.439,34.2Z" transform="translate(-11.172 6.316)" fill="url(#linear-gradient-19)"/>
        <path id="Path_28858" data-name="Path 28858" d="M74.3,66.946a34.211,34.211,0,0,0,4.177-5.939c1.842-3.34,3.01-7.049,4.948-10.33V35.346c-3.412,5.59-4.516,12.258-6.606,18.434a81.583,81.583,0,0,1-8.377,17.179h2.248C71.881,69.607,73.123,68.3,74.3,66.946Z" transform="translate(-4.27 8.138)" fill="url(#linear-gradient-20)"/>
        <path id="Path_28859" data-name="Path 28859" d="M79.77,55.57V52.288a54.939,54.939,0,0,1-5.519,7.992h2.3C77.694,58.755,78.728,57.161,79.77,55.57Z" transform="translate(-0.611 18.817)" fill="url(#linear-gradient-21)"/>
        <path id="Path_28860" data-name="Path 28860" d="M59.848,8.82c-.766,1.184-1.627,2.343-2.289,3.595a26.787,26.787,0,0,0,5-5.251h-1.65C60.58,7.767,60.159,8.341,59.848,8.82Z" transform="translate(-10.263 -7.164)" fill="url(#linear-gradient-22)"/>
        <path id="Path_28861" data-name="Path 28861" d="M72.185,8.088c-1.112.743-2.255,1.461-3.3,2.3a25.315,25.315,0,0,0-2.877,2.886c-2.278,2.525-4.63,4.946-7.035,7.353-1.011,1.009-1.883,2.139-2.891,3.146a4.243,4.243,0,0,1-2.441,1.422.174.174,0,0,1-.174-.173c.083-1.7,1.418-3.057,2.414-4.322,1.518-1.927,2.594-4.213,3.988-6.234A35.75,35.75,0,0,0,63.3,8.879c.243-.543.487-1.144.783-1.715h-.955c-2.706,3.737-4.413,8.134-7.1,11.9-1.508,2.115-3.124,4.149-4.628,6.264-.778,1.1-1.537,2.2-2.22,3.362-.336.569-1.311,1.894-1.056,2.612.329.931,2.25,0,2.729-.277a16.02,16.02,0,0,0,2.263-1.648c1.286-1.1,2.472-2.305,3.748-3.414,1.971-1.713,3.929-3.446,5.771-5.3,1.863-1.87,3.482-3.89,5.153-5.926A47.522,47.522,0,0,1,72.973,9.19c.766-.675,1.575-1.332,2.344-2.026H73.534C73.087,7.482,72.632,7.788,72.185,8.088Z" transform="translate(-16.179 -7.164)" fill="url(#linear-gradient-23)"/>
        <path id="Path_28862" data-name="Path 28862" d="M33.517,55.135a4.961,4.961,0,0,1-.171,2.641A21.37,21.37,0,0,1,32.11,61.13c-.088.2-.179.39-.272.582h2.385c.267-.455.527-.916.771-1.384,1.25-2.392,2.571-5.158,2.758-7.894.051-.734.072-1.912-.75-2.264-1.519-.65-3.567.934-4.7,1.78-1.394,1.035-2.741,2.159-4.069,3.279q-.308.262-.62.528v1.365C29.989,55.021,32.871,53.014,33.517,55.135Z" transform="translate(-27.61 17.385)" fill="url(#linear-gradient-24)"/>
        <path id="Path_28863" data-name="Path 28863" d="M29.932,54.691a2.882,2.882,0,0,0-1.834.54c-.168.1-.328.2-.487.31v.6a2.639,2.639,0,0,0,1.528,2.392,8.31,8.31,0,0,0,1.231-2.519C30.484,55.55,30.58,54.808,29.932,54.691Z" transform="translate(-27.61 20.317)" fill="url(#linear-gradient-25)"/>
      </g>
    </g>
  </g>
</svg>
