<svg xmlns="http://www.w3.org/2000/svg" width="50" height="50" viewBox="0 0 50 50">
  <g id="Group_169" data-name="Group 169" transform="translate(0 0)">
    <path id="Path_1231" data-name="Path 1231" d="M88.205,52.936c-17.751.254-22.486,18.906-23.331,21.312a11.311,11.311,0,0,0,0,6.7c.507,2.062.845,16.328,15.047,20.624S108.662,99,110.184,94.357s2.2-7.39,3.55-9.453.507-14.093-2.536-20.453S100.209,52.765,88.205,52.936Z" transform="translate(-64.359 -52.932)" fill="#412311"/>
    <path id="Path_1232" data-name="Path 1232" d="M95.411,60.965C78.405,61.2,73.868,78.258,73.058,80.459a9.9,9.9,0,0,0,0,6.131c.486,1.887.81,14.935,14.416,18.866s27.536-2.358,28.994-6.6,2.106-6.76,3.4-8.647.486-12.891-2.43-18.708S106.912,60.807,95.411,60.965Z" transform="translate(-71.517 -59.935)" fill="#57341b"/>
    <path id="Path_1233" data-name="Path 1233" d="M116.469,223.21c1.458-4.245,2.106-6.76,3.4-8.647.662-.963.773-4.3.337-8.116-1.953,3.991-6.182,8.352-7.484,10.848-1.7,3.251-10.9,5.8-15.079,2.449s-9.5-1.8-16.726-5.027c-5.4-2.408-6.972-8.34-7.425-11.187-.2.586-.344,1.035-.436,1.285a9.9,9.9,0,0,0,0,6.131c.486,1.887.81,14.935,14.416,18.866S115.011,227.455,116.469,223.21Z" transform="translate(-71.517 -184.293)" fill="#4d2c15"/>
    <path id="Path_1234" data-name="Path 1234" d="M144.1,71.5c-2.91-5.817-10.51-10.69-21.989-10.533-10.16.139-15.859,6.306-18.972,11.707,2.984-2.806,7.331-6.626,9.818-7.577,4.047-1.547,9.871-.259,13.094-.452s9.547.581,12.2,4.835,5.059,3.867,5.818,6.445c.493,1.677,1.468,2.266,2.368,3.286A29.74,29.74,0,0,0,144.1,71.5Z" transform="translate(-98.187 -59.935)" fill="#633c21"/>
    <g id="Group_165" data-name="Group 165" transform="translate(1.056 1.029)">
      <g id="Group_164" data-name="Group 164">
        <path id="Path_1235" data-name="Path 1235" d="M159.673,86.9a7.97,7.97,0,0,0,3.393,1.211.471.471,0,0,0,.33-.8,11.446,11.446,0,0,0-3.1-1.475q-.489-.213-.969-.445-.572.351-1.108.73C158.7,86.387,159.179,86.651,159.673,86.9Z" transform="translate(-147.491 -82.273)" fill="#642"/>
        <path id="Path_1236" data-name="Path 1236" d="M151.808,77.091a7.283,7.283,0,0,0,3.984.774c1.224-.174,2.411.565,3.4-.42,2.113-2.113-2.429-4.533-3.6-5.36-1.438-1.015-2.9-2.117-4.411-3.135a20.706,20.706,0,0,0-2,.729c.757.535,1.51,1.079,2.268,1.636q1.606,1.179,3.224,2.34l1.618,1.159c2.169,1.554,1,1.205.054,1.18-1.117-.03-2.086.306-3.234-.093-1.477-.514-2.93-1.107-4.382-1.688-1.43-.572-2.874-1.114-4.315-1.662q-.435.348-.845.711C146.251,74.663,148.965,75.941,151.808,77.091Z" transform="translate(-134.733 -67.933)" fill="#642"/>
        <path id="Path_1237" data-name="Path 1237" d="M346,78.317a3.7,3.7,0,0,0,2.468-1.534q-.843-.556-1.782-1.053a2.542,2.542,0,0,1-1.111.638,9.794,9.794,0,0,1-.757-1.527q-.769-.326-1.59-.612C343.342,76.3,343.988,78.468,346,78.317Z" transform="translate(-309.314 -72.536)" fill="#642"/>
        <path id="Path_1238" data-name="Path 1238" d="M212.269,368.844a28.922,28.922,0,0,0-14.1,5.366q1.324.335,2.645.552a29.723,29.723,0,0,1,11.454-4.1,18,18,0,0,1,8.361,1.526c.039.015.076.034.114.049a22.751,22.751,0,0,0,2.421-1.277A24.717,24.717,0,0,0,212.269,368.844Z" transform="translate(-182.692 -329.49)" fill="#642"/>
        <path id="Path_1239" data-name="Path 1239" d="M257.2,401.45a13.769,13.769,0,0,0-5-.7,15.384,15.384,0,0,0-7.816,2.245c1.012.067,2.014.089,3,.071a14.363,14.363,0,0,1,5.65-.916,9.172,9.172,0,0,1,1.217.135c1.064-.224,2.086-.489,3.058-.786C257.274,401.482,257.239,401.463,257.2,401.45Z" transform="translate(-222.95 -357.342)" fill="#642"/>
        <path id="Path_1240" data-name="Path 1240" d="M95.982,215.863c5.124-1.086,10.85-2.932,14.929-6.334a.831.831,0,0,0,.217-.821c-.731-2.6-3.379-3.625-5.925-3.252-2.567.376-5.038,1.557-7.661.933-1.308-.311-2.256-1.943-3.108-2.873a8.959,8.959,0,0,0-2.173-1.51c-3.674-2.1-8.741-4.208-13.519-4.385-.2.553-.363,1.022-.488,1.391,4.254.182,8.47,1.929,12.562,3.823,2.665,1.234,3.561,4.1,6.284,5.156,2.381.924,5.339-.442,7.636-.947a4.707,4.707,0,0,1,2.662.086l1.343.786q1.055,1.346-.773,1.879a24.62,24.62,0,0,1-5.318,2.54,56.679,56.679,0,0,1-9.694,2.706c-3.009.613-7.061,1.623-9.752,3.814.325.373.677.738,1.048,1.1a12.088,12.088,0,0,1,2.495-1.667C89.558,216.847,92.932,216.509,95.982,215.863Z" transform="translate(-77.535 -180.165)" fill="#642"/>
        <path id="Path_1241" data-name="Path 1241" d="M349.275,169.938c-1.669-.934-1.054-2.384-2.19-3.52-.984-.984-2.386-1.349-3.393-2.378-4.284-4.376,3.675-7.1,6.025-9.278a51.259,51.259,0,0,1,4.144-3.386q-.24-.656-.508-1.263c-.12.092-.241.184-.36.277-2.05,1.612-3.742,3.7-5.9,5.152-1.419.954-3.222,1.212-4.244,2.727a6.177,6.177,0,0,0-1.127,4.35,5.725,5.725,0,0,0,1.792,3.644c.752.725,2.222,1,2.511,2.174a5.1,5.1,0,0,0,.829,2c.979,1.371,2.907,2.046,4.342,2.774.527.267,1.08.556,1.648.842.25-.742.479-1.421.7-2.042C352.087,171.306,350.591,170.674,349.275,169.938Z" transform="translate(-308.137 -138.727)" fill="#642"/>
        <path id="Path_1242" data-name="Path 1242" d="M130.1,73.975a41.147,41.147,0,0,0,8.2,2.226c1.317.215,3.114.1,3.785-1.311,1.686-3.554-1.339-7.564-3.519-10.225a25.405,25.405,0,0,0-3.732-3.679c-.095,0-.188,0-.283,0a24.624,24.624,0,0,0-2.923.214,32.406,32.406,0,0,1,3.991,3.134,22.182,22.182,0,0,1,3.242,3.986,19.707,19.707,0,0,1,1.107,2.029q1.772,2.57-2.16,3.991-.964-.153-1.921-.352c-5.853-1.144-11.8-4.911-17.879-5.247-.359.423-.7.849-1.025,1.28C121.559,70.643,125.677,72.271,130.1,73.975Z" transform="translate(-111.312 -60.986)" fill="#642"/>
        <path id="Path_1243" data-name="Path 1243" d="M97.635,131.537c2.622.755,5.164,1.393,7.837,1.934,4.308.871,6.435,6.123,11.288,5.266,4.745-.838,7.68-4.891,11.171-7.885a40.73,40.73,0,0,1,6.518-4.461,15,15,0,0,0-1.051-1.557,54.463,54.463,0,0,0-5.176,3.545c-4.049,3.078-9.084,10.931-14.916,8.088-2.061-1-3.407-3.053-5.535-4.035-2.431-1.122-5.415-1.1-7.98-1.869a22.773,22.773,0,0,0-6.355-1.223c-.287.54-.549,1.067-.787,1.576A12.847,12.847,0,0,1,97.635,131.537Z" transform="translate(-90.092 -116.679)" fill="#642"/>
        <path id="Path_1244" data-name="Path 1244" d="M91.622,244.1a.747.747,0,0,0,.259-.989c-.805-1.656-2.35-1.923-4.054-2.093-3.137-.314-5.346-2.826-7.834-4.488a12.534,12.534,0,0,0-7.369-1.985,9.552,9.552,0,0,0,.044,1.077,13.2,13.2,0,0,1,7.353,2.429c1.539,1.064,2.867,2.349,4.475,3.323,1.481.9,4.449.674,5.725,1.9-3.429,1.887-7.937.158-11.688,1.357a9.9,9.9,0,0,0-3.174,1.832q.342.749.766,1.505a13.143,13.143,0,0,1,6.051-1.936C85.5,245.843,88.791,246.234,91.622,244.1Z" transform="translate(-72.625 -212.37)" fill="#642"/>
        <path id="Path_1245" data-name="Path 1245" d="M85.368,275.964c0-1.491-2.381-1.754-3.458-2.023a11.491,11.491,0,0,0-3.375-.31c.049.309.106.651.174,1.023a11.964,11.964,0,0,1,4.954,1.193c-.81.681-3.1,1.028-4.4,1.26.152.548.333,1.122.543,1.711.527-.169,1.069-.322,1.637-.448C82.593,278.116,85.368,277.64,85.368,275.964Z" transform="translate(-77.779 -246.452)" fill="#642"/>
        <path id="Path_1246" data-name="Path 1246" d="M161.508,333.938c4.914-.785,9.854-3.967,14.907-3.265,2.851.4,5.438,2.1,7.832,3.784a5.155,5.155,0,0,0,1.309-1.806c-.228-.149-.454-.3-.683-.446-3.272-2.1-6.928-3.717-10.9-3.156a34.963,34.963,0,0,0-6.847,1.94,44.17,44.17,0,0,1-7.708,1.874A15.039,15.039,0,0,0,150.927,337q.486.291,1.007.561a16.225,16.225,0,0,1,2.269-1.7C156.329,334.563,159.105,334.322,161.508,333.938Z" transform="translate(-141.753 -294.706)" fill="#642"/>
        <path id="Path_1247" data-name="Path 1247" d="M376.1,185.492c-2.237-.127-5.011-1.509-2.867-4.038a25.814,25.814,0,0,1,2.912-2.616,44.81,44.81,0,0,1,3.988-3.147q-.131-.515-.277-1.018a33.541,33.541,0,0,0-5.306,3.756c-1.54,1.306-4.621,3.542-3.543,6.02,1.207,2.774,5.207,2.609,7.744,2.521a3.922,3.922,0,0,1,2.515.96,14.644,14.644,0,0,0,.14-1.693C379.751,185.264,378.015,185.6,376.1,185.492Z" transform="translate(-333.523 -160.15)" fill="#642"/>
        <path id="Path_1248" data-name="Path 1248" d="M306.612,70.251c.93,1.555,1.893,4,3.843,4.534a3.569,3.569,0,0,0,3.851-1.777,18.619,18.619,0,0,1,2.192-2.542,18.32,18.32,0,0,0-1.412-1.249,30.278,30.278,0,0,0-2.287,2.627c-2.362,3.007-5.037-2.454-6.025-3.967-.743-1.137-1.542-2.231-2.331-3.333-.382-.075-.768-.145-1.162-.207C304.4,66.3,305.449,68.307,306.612,70.251Z" transform="translate(-274.644 -63.909)" fill="#642"/>
        <path id="Path_1249" data-name="Path 1249" d="M405.913,278.8a.6.6,0,0,0-.515.9c.586,1.157,1.976,1.743,3.072,2.334.4.214.793.424,1.192.624a14.761,14.761,0,0,1,.8-1.669c-.2-.109-.4-.218-.6-.33C408.633,279.977,407.357,278.861,405.913,278.8Z" transform="translate(-363.656 -250.979)" fill="#642"/>
        <path id="Path_1250" data-name="Path 1250" d="M420.2,210.214c.374,1.322,1.659,1.752,2.911,1.917.445.058.9.121,1.35.185-.021-.623-.061-1.281-.12-1.964-.263-.011-.518-.022-.757-.038a10.984,10.984,0,0,1-1.512-.211c-1.034-.214,1.374-2,1.355-1.99.2-.142.4-.273.6-.4q-.085-.571-.184-1.147a11.227,11.227,0,0,0-1.453.725C421.5,207.823,419.834,208.935,420.2,210.214Z" transform="translate(-376.579 -187.969)" fill="#642"/>
      </g>
    </g>
    <g id="Group_166" data-name="Group 166" transform="translate(1.056 19.238)">
      <path id="Path_1251" data-name="Path 1251" d="M390.523,303.154a2.894,2.894,0,0,1-.454-.314,11.616,11.616,0,0,0-.667,1.078,3.533,3.533,0,0,1-.434.626,20.2,20.2,0,0,0,3.472,1.881c.527.267,1.08.556,1.648.842.25-.742.479-1.421.7-2.042C393.335,304.522,391.838,303.891,390.523,303.154Z" transform="translate(-349.385 -290.154)" fill="#642"/>
      <path id="Path_1252" data-name="Path 1252" d="M440.153,237.874c-.021-.623-.061-1.281-.12-1.963-.263-.012-.518-.022-.756-.038l-.04,0c-.336.567-.7,1.135-1.1,1.7.219.049.44.091.662.12C439.248,237.748,439.7,237.811,440.153,237.874Z" transform="translate(-392.276 -231.737)" fill="#642"/>
      <path id="Path_1253" data-name="Path 1253" d="M408.77,279.649c-.323.409-.637.808-.935,1.192a8.264,8.264,0,0,0,2.821,1.932c.4.214.793.424,1.192.624a14.759,14.759,0,0,1,.8-1.67c-.2-.109-.4-.218-.6-.33A14.839,14.839,0,0,0,408.77,279.649Z" transform="translate(-365.842 -269.925)" fill="#642"/>
      <path id="Path_1254" data-name="Path 1254" d="M257.2,401.45a13.769,13.769,0,0,0-5-.7,15.386,15.386,0,0,0-7.816,2.245c1.012.068,2.014.089,3,.071a14.365,14.365,0,0,1,5.65-.916,9.168,9.168,0,0,1,1.217.135c1.064-.224,2.086-.489,3.058-.786C257.274,401.482,257.24,401.463,257.2,401.45Z" transform="translate(-222.95 -375.551)" fill="#642"/>
      <path id="Path_1255" data-name="Path 1255" d="M212.27,368.844a28.921,28.921,0,0,0-14.1,5.366q1.324.335,2.645.552a29.722,29.722,0,0,1,11.454-4.1,18,18,0,0,1,8.361,1.526c.039.015.076.034.114.049a22.751,22.751,0,0,0,2.421-1.277A24.717,24.717,0,0,0,212.27,368.844Z" transform="translate(-182.693 -347.7)" fill="#642"/>
      <path id="Path_1256" data-name="Path 1256" d="M129.787,321.769a52.257,52.257,0,0,0,6.381-1.753,10.122,10.122,0,0,0-1.917-.979,65.718,65.718,0,0,1-7.489,1.91c-3.009.613-7.061,1.622-9.752,3.814.325.373.677.738,1.047,1.1a12.088,12.088,0,0,1,2.495-1.667C123.363,322.753,126.737,322.416,129.787,321.769Z" transform="translate(-111.34 -304.281)" fill="#642"/>
      <path id="Path_1257" data-name="Path 1257" d="M78.593,204.185c-.045-.231-.086-.452-.118-.654-.083.239-.154.447-.218.636Q78.425,204.174,78.593,204.185Z" transform="translate(-77.537 -203.531)" fill="#642"/>
      <path id="Path_1258" data-name="Path 1258" d="M110,308.183c-.855-.137-1.743-.267-2.674-.422-3.161.821-6.906-.278-10.1.745a9.9,9.9,0,0,0-3.174,1.832q.342.749.766,1.505a13.143,13.143,0,0,1,6.051-1.936C104.068,309.716,107.236,310.067,110,308.183Z" transform="translate(-91.308 -294.446)" fill="#642"/>
      <path id="Path_1259" data-name="Path 1259" d="M161.508,336.345c4.914-.785,9.854-3.967,14.907-3.265,2.851.4,5.438,2.1,7.832,3.784a5.155,5.155,0,0,0,1.309-1.806c-.228-.149-.454-.3-.683-.446a21.1,21.1,0,0,0-6.4-2.916,15.207,15.207,0,0,1-9.512,1.054c-.612.209-1.223.426-1.835.645a44.17,44.17,0,0,1-7.708,1.874,15.039,15.039,0,0,0-8.485,4.136q.486.291,1.007.561a16.225,16.225,0,0,1,2.269-1.7C156.329,336.97,159.105,336.729,161.508,336.345Z" transform="translate(-141.753 -315.322)" fill="#642"/>
      <path id="Path_1260" data-name="Path 1260" d="M85.368,275.964a1.2,1.2,0,0,0-.209-.686,10.873,10.873,0,0,1-1.2-.812,17.948,17.948,0,0,0-2.053-.525,11.491,11.491,0,0,0-3.375-.31c.049.309.106.651.174,1.023a11.964,11.964,0,0,1,4.954,1.193c-.81.681-3.1,1.028-4.4,1.26.152.548.333,1.122.543,1.711.527-.169,1.069-.322,1.637-.448C82.593,278.116,85.368,277.64,85.368,275.964Z" transform="translate(-77.779 -264.661)" fill="#642"/>
      <path id="Path_1261" data-name="Path 1261" d="M422.9,259.616c-.374.5-.754,1-1.132,1.482.514,0,1.008-.021,1.455-.037a3.921,3.921,0,0,1,2.514.959,14.589,14.589,0,0,0,.141-1.693A5.881,5.881,0,0,0,422.9,259.616Z" transform="translate(-377.995 -252.451)" fill="#642"/>
      <path id="Path_1262" data-name="Path 1262" d="M72.67,235.621a12.93,12.93,0,0,1,2.584.313c-.219-.44-.417-.879-.588-1.312a13.84,13.84,0,0,0-2.04-.078A9.552,9.552,0,0,0,72.67,235.621Z" transform="translate(-72.625 -230.575)" fill="#642"/>
    </g>
    <g id="Group_168" data-name="Group 168" transform="translate(6.725 1.029)">
      <g id="Group_167" data-name="Group 167">
        <path id="Path_1263" data-name="Path 1263" d="M394.337,128.156c.965-.623,1.955-1.208,2.959-1.764a14.99,14.99,0,0,0-1.071-1.557c-1.1.637-2.164,1.328-3.183,2.035A11.868,11.868,0,0,0,394.337,128.156Z" transform="translate(-358.606 -116.679)" fill="#644321"/>
        <path id="Path_1264" data-name="Path 1264" d="M419.323,152.529q.75-.59,1.511-1.16c-.16-.436-.326-.863-.5-1.266-.121.093-.243.185-.362.278-.52.409-1.017.849-1.5,1.3A4.765,4.765,0,0,1,419.323,152.529Z" transform="translate(-380.781 -138.719)" fill="#644321"/>
        <path id="Path_1265" data-name="Path 1265" d="M431.38,176.525q.563-.425,1.145-.822-.132-.516-.277-1.019c-.475.267-.94.549-1.4.841A4.719,4.719,0,0,0,431.38,176.525Z" transform="translate(-391.586 -160.16)" fill="#644321"/>
        <path id="Path_1266" data-name="Path 1266" d="M344.366,77.738q.53.249,1.031.548a2.324,2.324,0,0,0,.6.031,3.7,3.7,0,0,0,2.468-1.534q-.843-.556-1.782-1.053a2.542,2.542,0,0,1-1.111.638,9.794,9.794,0,0,1-.757-1.527q-.769-.326-1.59-.612A5.577,5.577,0,0,0,344.366,77.738Z" transform="translate(-314.979 -72.536)" fill="#644321"/>
        <path id="Path_1267" data-name="Path 1267" d="M235.582,64.336c.094.089.179.186.27.277a23.424,23.424,0,0,0,2.677.053,25.4,25.4,0,0,0-3.732-3.679c-.095,0-.188,0-.283,0a24.689,24.689,0,0,0-2.927.212A32.426,32.426,0,0,1,235.582,64.336Z" transform="translate(-217.298 -60.986)" fill="#644321"/>
        <path id="Path_1268" data-name="Path 1268" d="M118.041,123.144c.5-.434,1.015-.865,1.528-1.285q-.774-.112-1.552-.155-.537.634-1.019,1.28Q117.523,123.056,118.041,123.144Z" transform="translate(-116.998 -113.948)" fill="#644321"/>
        <path id="Path_1269" data-name="Path 1269" d="M145.052,98.607c.39-.282.772-.548,1.139-.788l-1.817-.692q-.434.348-.844.711C144.035,98.1,144.544,98.352,145.052,98.607Z" transform="translate(-140.141 -92.51)" fill="#644321"/>
        <path id="Path_1270" data-name="Path 1270" d="M159.625,86.872l.246.125a9.122,9.122,0,0,1,1.268-.619c.1-.038.21-.067.314-.1-.41-.154-.822-.3-1.208-.466q-.493-.215-.977-.449-.571.351-1.107.73C158.645,86.358,159.129,86.624,159.625,86.872Z" transform="translate(-152.903 -82.247)" fill="#644321"/>
        <path id="Path_1271" data-name="Path 1271" d="M189.755,71.281l.105.077a25.058,25.058,0,0,1,2.94-.092c-1.086-.785-2.189-1.594-3.322-2.355a20.586,20.586,0,0,0-1.992.734C188.243,70.179,189,70.724,189.755,71.281Z" transform="translate(-178.686 -67.898)" fill="#644321"/>
        <path id="Path_1272" data-name="Path 1272" d="M378.942,104.982a7.727,7.727,0,0,1,.554.762c.2.315.4.6.6.865.072-.092.142-.185.209-.28a18.619,18.619,0,0,1,2.192-2.542,18.356,18.356,0,0,0-1.412-1.249A29.329,29.329,0,0,0,378.942,104.982Z" transform="translate(-346.308 -97.231)" fill="#644321"/>
        <path id="Path_1273" data-name="Path 1273" d="M305.225,67.829c.576.093,1.161.215,1.749.369-.073-.119-.14-.227-.2-.32-.743-1.137-1.542-2.231-2.331-3.333-.382-.075-.768-.145-1.162-.207C303.939,65.5,304.577,66.665,305.225,67.829Z" transform="translate(-280.002 -63.91)" fill="#644321"/>
      </g>
    </g>
    <path id="Path_1274" data-name="Path 1274" d="M390.228,241.021s-.716-2.474-2.778-2.56-6.187-3.867-6.187-3.867A7.874,7.874,0,0,0,384.1,237.6c1.891,1.083,2.234,1.976,3.352,1.976s2.055,3.915,2.148,3.7a15.206,15.206,0,0,1,.961-1.289Z" transform="translate(-341.607 -211.386)" fill="#412411"/>
    <path id="Path_1275" data-name="Path 1275" d="M73.838,255.491s.773-.859,2.492-.172,4.9-1.891,4.9-1.891-1.375,2.578-3.18,2.578-3.351.688-3.7,1.289S73.838,255.491,73.838,255.491Z" transform="translate(-72.627 -227.816)" fill="#412411"/>
    <path id="Path_1276" data-name="Path 1276" d="M190.215,64.586a5.361,5.361,0,0,1,4.555,1.031c1.976,1.719,5.586,1.031,5.586,1.031s-4.125-.859-4.984-1.461a21.319,21.319,0,0,0-3.008-1.461Z" transform="translate(-174.465 -62.348)" fill="#412411"/>
  </g>
</svg>
